<?xml version="1.0" encoding="utf-8"?>
<svg width="800px" height="800px" viewBox="0 0 32 32" version="1.1" xmlns="http://www.w3.org/2000/svg">
  <title>book-album</title>
  <desc>Created with Sketch Beta.</desc>
  <rect width="32" height="32" rx="4" fill="#0d0d0f"/>
  <g id="Page-1" stroke="none" stroke-width="1" fill="none" fill-rule="evenodd">
    <g transform="translate(5.000000, 5.000000)">
      <g transform="scale(0.687500)">
        <g id="Icon-Set-Filled" transform="translate(-414.000000, -101.000000)" fill="#000000">
          <path d="M418,101 C415.791,101 414,102.791 414,105 L414,126 C414,128.209 415.885,129.313 418,130 L429,133 L429,104 C423.988,102.656 418,101 418,101 L418,101 Z M442,101 C442,101 436.212,102.594 430.951,104 L431,104 L431,133 C436.617,131.501 442,130 442,130 C444.053,129.469 446,128.209 446,126 L446,105 C446,102.791 444.209,101 442,101 L442,101 Z" id="book-album" style="fill: rgb(138, 127, 240);"/>
        </g>
      </g>
    </g>
  </g>
</svg>
